<svg width="117" height="306" viewBox="0 0 117 306" fill="none" xmlns="http://www.w3.org/2000/svg">
<rect x="63.7025" y="275.666" width="37.746" height="37.746" rx="4" transform="rotate(-36.5216 63.7025 275.666)" fill="url(#paint0_linear_303_4)"/>
<g clip-path="url(#clip0_303_4)">
<path d="M83.059 270.197C86.0239 268.001 86.3834 267.753 87.5938 266.939C88.713 266.187 89.4349 265.932 89.9388 265.794C90.6062 265.612 91.1543 265.579 91.8306 265.68C92.5068 265.78 93.0214 265.972 93.6066 266.341C94.0484 266.62 94.6646 267.074 95.5157 268.12C96.4362 269.251 96.7075 269.594 98.903 272.559C101.098 275.524 101.347 275.883 102.161 277.094C102.913 278.213 103.168 278.935 103.305 279.439C103.488 280.106 103.521 280.654 103.42 281.331C103.319 282.007 103.128 282.521 102.758 283.107C102.48 283.548 102.026 284.165 100.98 285.016C99.8486 285.936 99.5058 286.207 96.5407 288.403C93.5757 290.599 93.2162 290.847 92.0059 291.661C90.8867 292.413 90.1649 292.668 89.661 292.805C88.9936 292.988 88.4454 293.021 87.7692 292.92C87.0929 292.819 86.5783 292.628 85.9932 292.258C85.5513 291.98 84.9351 291.526 84.084 290.48C83.1636 289.348 82.8922 289.006 80.6968 286.041C78.5013 283.076 78.2525 282.716 77.4389 281.506C76.6867 280.387 76.4322 279.665 76.2945 279.161C76.1121 278.494 76.0788 277.945 76.1796 277.269C76.2805 276.593 76.4722 276.078 76.8413 275.493C77.12 275.051 77.574 274.435 78.62 273.584C79.7513 272.664 80.0941 272.392 83.059 270.197ZM81.5775 268.196C78.5618 270.429 78.1932 270.722 77.0489 271.653C75.9069 272.582 75.2388 273.367 74.7357 274.165C74.2157 274.989 73.8776 275.828 73.7174 276.902C73.5572 277.976 73.6361 278.877 73.893 279.817C74.1415 280.727 74.5515 281.673 75.3728 282.895C76.1957 284.119 76.463 284.507 78.6961 287.522C80.9292 290.538 81.2219 290.907 82.1529 292.051C83.0821 293.193 83.8674 293.861 84.665 294.364C85.4894 294.884 86.3277 295.222 87.4021 295.382C88.4765 295.543 89.3768 295.464 90.3171 295.207C91.2267 294.958 92.1729 294.548 93.3947 293.727C94.6191 292.904 95.0066 292.637 98.0222 290.404C101.038 288.171 101.407 287.878 102.551 286.947C103.693 286.018 104.361 285.232 104.864 284.435C105.384 283.61 105.722 282.772 105.882 281.698C106.043 280.623 105.964 279.723 105.707 278.783C105.458 277.873 105.048 276.927 104.227 275.705C103.404 274.481 103.137 274.093 100.904 271.077C98.6706 268.062 98.3778 267.693 97.4468 266.549C96.5177 265.407 95.7323 264.739 94.9347 264.236C94.1103 263.716 93.2721 263.378 92.1977 263.217C91.1233 263.057 90.2229 263.136 89.2826 263.393C88.373 263.642 87.4269 264.052 86.205 264.873C84.9807 265.696 84.5931 265.963 81.5775 268.196ZM85.5775 273.598C82.4284 275.93 81.766 280.373 84.0979 283.522C86.4298 286.671 90.8731 287.334 94.0222 285.002C97.1713 282.67 97.8338 278.227 95.5018 275.078C93.1699 271.928 88.7266 271.266 85.5775 273.598ZM92.5407 283.001C90.4965 284.515 87.6123 284.085 86.0986 282.041C84.5849 279.997 85.0149 277.112 87.0591 275.599C89.1032 274.085 91.9875 274.515 93.5012 276.559C95.0148 278.603 94.5848 281.487 92.5407 283.001ZM92.6704 267.997C93.2154 268.733 93.0606 269.771 92.3247 270.316C91.5888 270.861 90.5504 270.706 90.0055 269.97C89.4606 269.234 89.6154 268.196 90.3513 267.651C91.0872 267.106 92.1255 267.261 92.6704 267.997Z" fill="white"/>
</g>
<g filter="url(#filter0_f_303_4)">
<rect x="17.057" y="155.54" width="30.1552" height="30.1552" rx="15.0776" transform="rotate(-14.3681 17.057 155.54)" fill="#55ACEE"/>
<g clip-path="url(#clip1_303_4)">
<path d="M42.9433 158.54C42.3352 159.009 41.6517 159.396 40.9038 159.683C41.5734 159.024 41.9921 158.145 42.0555 157.209C41.4278 157.821 40.691 158.337 39.8655 158.726C38.9864 158.186 37.881 157.99 36.7851 158.271C34.6805 158.81 33.3982 160.902 33.921 162.943C33.9952 163.232 34.1012 163.506 34.2354 163.759C31.0289 164.417 27.8442 163.665 25.392 161.911C25.2038 162.541 25.1785 163.224 25.352 163.901C25.6805 165.183 26.643 166.141 27.8353 166.542C27.2057 166.683 26.5755 166.667 25.9908 166.522C25.9945 166.538 25.9985 166.553 26.0024 166.569C26.4611 168.359 28.1573 169.516 29.9875 169.409C29.6893 169.575 29.3642 169.707 29.0167 169.796C28.7711 169.858 28.5265 169.897 28.2828 169.913C29.1438 171.257 30.8248 171.965 32.4999 171.567C31.4497 172.892 29.9579 173.904 28.1726 174.361C27.8651 174.44 27.5573 174.501 27.2504 174.543C29.2054 175.159 31.3651 175.258 33.5171 174.706C40.5261 172.911 42.9164 166.298 41.6654 161.415C41.6244 161.255 41.5799 161.097 41.5319 160.94C42.1429 160.228 42.6223 159.412 42.9433 158.54Z" fill="white"/>
</g>
</g>
<rect x="37.4498" y="25.1805" width="46.1743" height="46.1743" rx="4" transform="rotate(-10.8992 37.4498 25.1805)" fill="#FF0000"/>
<g clip-path="url(#clip2_303_4)">
<path d="M74.7527 34.6058C74.2452 33.6054 73.2355 32.9491 72.1006 32.8819C70.0581 32.757 62.2646 34.347 62.2646 34.347C62.2646 34.347 54.4742 35.9528 52.6439 36.8678C51.6261 37.3742 50.9541 38.3736 50.8791 39.4928C50.9845 43.0001 51.8104 48.2084 53.3029 51.2916C53.8104 52.292 54.8201 52.9483 55.955 53.0155C57.9975 53.1404 65.791 51.5504 65.791 51.5504C65.791 51.5504 73.5846 49.9603 75.4149 49.0453C76.4327 48.5389 77.1047 47.5395 77.1797 46.4203C77.1053 42.9018 76.2432 37.7041 74.7527 34.6058Z" fill="white"/>
<path d="M62.2915 47.1435L68.0046 42.1373L60.787 39.7692L62.2915 47.1435Z" fill="#FF0000"/>
</g>
<defs>
<filter id="filter0_f_303_4" x="0.323311" y="131.323" width="70.1625" height="70.1625" filterUnits="userSpaceOnUse" color-interpolation-filters="sRGB">
<feFlood flood-opacity="0" result="BackgroundImageFix"/>
<feBlend mode="normal" in="SourceGraphic" in2="BackgroundImageFix" result="shape"/>
<feGaussianBlur stdDeviation="10" result="effect1_foregroundBlur_303_4"/>
</filter>
<linearGradient id="paint0_linear_303_4" x1="82.5755" y1="275.666" x2="82.5755" y2="313.412" gradientUnits="userSpaceOnUse">
<stop stop-color="#405DE6"/>
<stop offset="0.197917" stop-color="#5851DB"/>
<stop offset="0.401042" stop-color="#833AB4"/>
<stop offset="0.598958" stop-color="#C13584"/>
<stop offset="0.802083" stop-color="#E1306C"/>
<stop offset="1" stop-color="#FD1D1D"/>
</linearGradient>
<clipPath id="clip0_303_4">
<rect x="70.4737" y="276.418" width="27.6335" height="27.6335" transform="rotate(-36.52 70.4737 276.418)" fill="white"/>
</clipPath>
<clipPath id="clip1_303_4">
<rect x="23.9109" y="161.508" width="19.1736" height="15.1791" rx="7.58954" transform="rotate(-14.37 23.9109 161.508)" fill="white"/>
</clipPath>
<clipPath id="clip2_303_4">
<rect width="25.4673" height="17.6312" fill="white" transform="translate(49.8007 36.8898) rotate(-11.5311)"/>
</clipPath>
</defs>
</svg>
