<svg width="103" height="338" viewBox="0 0 103 338" fill="none" xmlns="http://www.w3.org/2000/svg">
<rect x="59.7695" y="124" width="41.6101" height="41.6101" rx="4" transform="rotate(15 59.7695 124)" fill="#1977F3"/>
<g clip-path="url(#clip0_303_3)">
<path d="M70.1312 165.715C78.6687 168.002 87.4442 162.936 89.7318 154.398C92.0195 145.861 86.9529 137.085 78.4154 134.797C69.8778 132.51 61.1023 137.576 58.8147 146.114C56.5271 154.651 61.5936 163.427 70.1312 165.715Z" fill="#1977F3"/>
<path d="M79.093 156.338L80.9754 152.052L76.6885 150.903L77.4655 148.003C77.7929 146.781 78.7105 145.748 80.6322 146.263L82.5822 146.786L83.6016 142.981C83.6016 142.981 81.913 142.205 80.2217 141.752C76.6913 140.806 73.8094 142.326 72.7708 146.202L71.8581 149.609L67.932 148.557L66.7344 153.026L70.6605 154.078L67.7661 164.88C68.5198 165.215 69.3094 165.494 70.1312 165.715C70.9529 165.935 71.7769 166.086 72.5965 166.175L75.4909 155.373L79.093 156.338Z" fill="white"/>
</g>
<rect x="19" y="293" width="31.9665" height="31.9665" rx="4" transform="rotate(35.705 19 293)" fill="white"/>
<g clip-path="url(#clip1_303_3)">
<path d="M27.5688 314.795C28.0893 316.329 29.0768 317.721 30.4926 318.739L32.45 316.016C32.1821 315.823 31.9349 315.603 31.7126 315.359L30.1719 317.503C28.7562 316.485 27.7688 315.093 27.248 313.559L23.2535 319.116C21.2552 321.896 17.3807 322.529 14.5996 320.53C13.5619 319.784 12.8228 318.777 12.4081 317.663C12.6508 319.255 13.5093 320.751 14.9202 321.766C17.7015 323.765 21.5761 323.132 23.5744 320.352L27.5689 314.796L27.5688 314.795ZM30.5272 312.755C30.4096 311.765 30.6052 310.735 31.1408 309.826L31.3926 309.476L30.637 308.933C30.0477 310.154 30.0305 311.547 30.5272 312.755ZM15.7006 316.794C15.6829 316.174 15.8699 315.566 16.2327 315.063C17.1466 313.791 18.9189 313.502 20.1912 314.416C20.4284 314.587 20.638 314.792 20.8124 315.027L22.8136 312.243C22.5755 312.017 22.32 311.81 22.0496 311.624L20.492 313.791C20.3173 313.556 20.1077 313.351 19.8704 313.18C18.5981 312.266 16.8259 312.555 15.9118 313.827C15.2655 314.726 15.2215 315.875 15.7006 316.794Z" fill="#FF004F"/>
<path d="M27.2481 313.559C27.7689 315.093 28.7562 316.485 30.1719 317.503L31.7127 315.359C31.0434 314.623 30.6405 313.707 30.5272 312.755C30.0305 311.547 30.0478 310.154 30.637 308.933L28.6523 307.506L20.8341 318.382C19.9182 319.647 18.1506 319.934 16.8811 319.021C16.1329 318.483 15.7245 317.649 15.7005 316.794C15.2214 315.875 15.2655 314.726 15.9117 313.827C16.8257 312.555 18.5979 312.266 19.8702 313.18C20.114 313.356 20.3217 313.562 20.4918 313.791L22.0495 311.624C19.2766 309.716 15.4753 310.368 13.5026 313.112C12.5178 314.482 12.1723 316.117 12.4082 317.663C12.8229 318.777 13.5619 319.784 14.5996 320.53C17.3808 322.529 21.2553 321.896 23.2535 319.116L27.2481 313.559L27.2481 313.559Z" fill="black"/>
<path d="M31.7127 315.359L32.1293 314.78C31.4159 314.269 30.8607 313.567 30.5272 312.755C30.6415 313.726 31.0559 314.636 31.7127 315.359ZM30.637 308.933C30.6933 308.816 30.7544 308.702 30.82 308.59L31.0718 308.24L28.3314 306.27L20.5131 317.146C19.5974 318.411 17.8299 318.698 16.5602 317.785C16.1875 317.517 15.8991 317.175 15.7004 316.794C15.7245 317.649 16.1329 318.483 16.8811 319.021C18.1505 319.933 19.9181 319.647 20.834 318.382L28.6523 307.506L30.637 308.933ZM22.0495 311.624L22.4931 311.007C22.2866 310.811 22.067 310.629 21.8358 310.463C19.0544 308.464 15.1798 309.097 13.1817 311.876C11.929 313.619 11.7112 315.792 12.4083 317.663C12.1724 316.117 12.5179 314.482 13.5026 313.112C15.4753 310.368 19.2766 309.716 22.0495 311.624Z" fill="#00F2EA"/>
</g>
<g filter="url(#filter0_f_303_3)">
<circle cx="70" cy="33" r="13" fill="#FC881D"/>
</g>
<defs>
<filter id="filter0_f_303_3" x="37" y="0" width="66" height="66" filterUnits="userSpaceOnUse" color-interpolation-filters="sRGB">
<feFlood flood-opacity="0" result="BackgroundImageFix"/>
<feBlend mode="normal" in="SourceGraphic" in2="BackgroundImageFix" result="shape"/>
<feGaussianBlur stdDeviation="10" result="effect1_foregroundBlur_303_3"/>
</filter>
<clipPath id="clip0_303_3">
<rect x="62.9574" y="130.653" width="32.0078" height="32.0078" rx="4" transform="rotate(15 62.9574 130.653)" fill="white"/>
</clipPath>
<clipPath id="clip1_303_3">
<rect width="18.0623" height="20.4612" fill="white" transform="translate(21 301) rotate(35.71)"/>
</clipPath>
</defs>
</svg>
